<?xml version="1.0" encoding="utf-8"?>
<!-- Generated by IcoMoon.io -->
<!DOCTYPE svg PUBLIC "-//W3C//DTD SVG 1.1//EN" "http://www.w3.org/Graphics/SVG/1.1/DTD/svg11.dtd">
<svg version="1.1" xmlns="http://www.w3.org/2000/svg" xmlns:xlink="http://www.w3.org/1999/xlink" width="512" height="512" viewBox="0 0 512 512">
<g id="icomoon-ignore">
	<line stroke-width="1" x1="" y1="" x2="" y2="" stroke="#449FDB" opacity=""></line>
</g>
	<path d="M0 484.572v-457.143q0-11.428 8-19.428t19.428-8h256q11.428 0 25.143 5.715t21.714 13.714l89.143 89.143q8 8 13.714 21.715t5.714 25.143v329.143q0 11.428-8 19.428t-19.428 8h-384q-11.428 0-19.428-8t-8-19.428zM36.572 475.428h365.714v-292.572h-118.857q-11.428 0-19.428-8t-8-19.428v-118.857h-36.572v36.572h-36.572v-36.572h-146.286v438.857zM109.715 384q0-7.143 2.285-14.857 6-18 34.286-113.143v-36.572h36.572v36.572h22.572q6.286 0 11.143 3.714t6.571 9.714l30.572 99.714q2.286 7.714 2.286 14.857 0 23.714-20.714 39.286t-52.428 15.572-52.428-15.572-20.715-39.286zM146.286 384q0 7.428 10.714 12.857t25.857 5.428 25.857-5.428 10.714-12.857-10.714-12.857-25.857-5.428-25.857 5.428-10.714 12.857zM146.286 182.857h36.572v-36.571h-36.572v36.572zM146.286 109.715h36.572v-36.572h-36.572v36.572zM182.857 219.429h36.571v-36.571h-36.572v36.572zM182.857 146.286h36.571v-36.572h-36.572v36.572zM292.572 146.286h107.428q-2.857-8.286-6.286-11.714l-89.428-89.428q-3.428-3.428-11.714-6.285v107.428z" fill="#000000"></path>
</svg>
