<?xml version="1.0" encoding="utf-8"?>
<!-- Generated by IcoMoon.io -->
<!DOCTYPE svg PUBLIC "-//W3C//DTD SVG 1.1//EN" "http://www.w3.org/Graphics/SVG/1.1/DTD/svg11.dtd">
<svg version="1.1" xmlns="http://www.w3.org/2000/svg" xmlns:xlink="http://www.w3.org/1999/xlink" width="512" height="512" viewBox="0 0 512 512">
<g id="icomoon-ignore">
	<line stroke-width="1" x1="" y1="" x2="" y2="" stroke="#449FDB" opacity=""></line>
</g>
	<path d="M476.698 37.321l-2.014-2.021c-47.074-47.067-124.097-47.067-171.163 0l-109.053 109.068c-47.067 47.066-47.067 124.088 0 171.155l2.013 2.013c3.916 3.924 8.073 7.462 12.368 10.729l39.924-39.925c-4.651-2.747-9.063-6.036-13.058-10.030l-2.021-2.021c-25.557-25.549-25.557-67.136 0-92.695l109.064-109.056c25.558-25.559 67.137-25.559 92.693 0l2.021 2.012c25.55 25.558 25.55 67.146 0 92.695l-49.343 49.343c8.566 21.154 12.624 43.7 12.269 66.193l76.302-76.302c47.067-47.068 47.067-124.089-0.002-171.158zM315.521 194.467c-3.916-3.916-8.073-7.461-12.368-10.72l-39.924 39.916c4.652 2.748 9.063 6.037 13.058 10.031l2.021 2.020c25.558 25.558 25.558 67.136 0 92.694l-109.065 109.067c-25.559 25.551-67.138 25.551-92.694 0l-2.021-2.021c-25.549-25.56-25.549-67.138 0-92.694l49.344-49.343c-8.567-21.153-12.623-43.701-12.269-66.193l-76.301 76.299c-47.068 47.066-47.068 124.089 0 171.162l2.013 2.016c47.076 47.064 124.096 47.064 171.164 0l109.055-109.059c47.067-47.066 47.067-124.097 0-171.163l-2.013-2.012z" fill="#000000"></path>
</svg>
