<?xml version="1.0" encoding="utf-8"?>
<!-- Generated by IcoMoon.io -->
<!DOCTYPE svg PUBLIC "-//W3C//DTD SVG 1.1//EN" "http://www.w3.org/Graphics/SVG/1.1/DTD/svg11.dtd">
<svg version="1.1" xmlns="http://www.w3.org/2000/svg" xmlns:xlink="http://www.w3.org/1999/xlink" width="512" height="512" viewBox="0 0 512 512">
<g id="icomoon-ignore">
	<line stroke-width="1" x1="" y1="" x2="" y2="" stroke="#449FDB" opacity=""></line>
</g>
	<path d="M201.19 376.166l-20.736 20.582c-17.971 17.792-47.181 17.817-65.126 0-8.627-8.576-13.363-19.917-13.363-32.026s4.761-23.475 13.363-32.051l76.288-75.699c15.795-15.693 45.542-38.758 67.226-17.255 9.959 9.881 26.035 9.805 35.891-0.128 9.882-9.933 9.83-26.010-0.128-35.891-36.839-36.557-91.315-29.798-138.752 17.255l-76.288 75.699c-18.279 18.176-28.365 42.343-28.365 68.070 0 25.702 10.087 49.869 28.391 68.045 18.841 18.714 43.571 28.032 68.301 28.032s49.511-9.318 68.352-28.032l20.736-20.608c9.958-9.882 10.010-25.959 0.128-35.865-9.881-9.933-25.958-9.984-35.917-0.128zM432.409 82.15c-39.577-39.27-94.899-41.395-131.558-5.043l-25.831 25.626c-9.959 9.882-10.035 25.933-0.154 35.891 9.907 9.958 25.959 10.010 35.891 0.128l25.83-25.626c18.969-18.841 43.827-11.034 60.058 5.043 8.627 8.55 13.363 19.943 13.363 32.026 0 12.109-4.762 23.475-13.363 32.025l-81.408 80.742c-37.197 36.915-54.682 19.61-62.131 12.211-9.958-9.882-26.010-9.805-35.865 0.128-9.881 9.959-9.831 26.035 0.128 35.891 17.075 16.947 36.608 25.344 57.037 25.344 25.037 0 51.481-12.595 76.621-37.555l81.382-80.743c18.304-18.15 28.39-42.317 28.39-68.019s-10.087-49.894-28.39-68.070z" fill="#000000"></path>
</svg>
