<?xml version="1.0" encoding="utf-8"?>
<!-- Generated by IcoMoon.io -->
<!DOCTYPE svg PUBLIC "-//W3C//DTD SVG 1.1//EN" "http://www.w3.org/Graphics/SVG/1.1/DTD/svg11.dtd">
<svg version="1.1" xmlns="http://www.w3.org/2000/svg" xmlns:xlink="http://www.w3.org/1999/xlink" width="512" height="512" viewBox="0 0 512 512">
<g id="icomoon-ignore">
	<line stroke-width="1" x1="" y1="" x2="" y2="" stroke="#449FDB" opacity=""></line>
</g>
	<path d="M256 0c-141.375 0-256 114.625-256 256 0 113.125 73.344 209.063 175.078 242.906 12.797 2.344 17.469-5.563 17.469-12.313 0-6.094-0.234-26.281-0.359-47.656-71.188 15.469-86.234-30.188-86.234-30.188-11.656-29.563-28.422-37.438-28.422-37.438-23.266-15.875 1.765-15.563 1.765-15.563 25.703 1.781 39.235 26.375 39.235 26.375 22.844 39.125 59.938 27.813 74.5 21.25 2.327-16.5 8.952-27.813 16.25-34.188-56.828-6.469-116.609-28.438-116.609-126.531 0-27.969 9.984-50.781 26.328-68.703-2.609-6.5-11.422-32.547 2.531-67.781 0 0 21.469-6.875 70.406 26.25 20.406-5.703 42.297-8.516 64.063-8.609 21.75 0.094 43.656 2.938 64.094 8.641 48.844-33.156 70.344-26.25 70.344-26.25 14 35.266 5.188 61.281 2.563 67.75 16.406 17.922 26.313 40.734 26.313 68.703 0 98.344-59.875 120-116.906 126.344 9.219 7.938 17.375 23.5 17.375 47.375 0 34.219-0.344 61.813-0.344 70.25 0 6.813 4.656 14.781 17.625 12.281 101.656-33.906 174.938-129.844 174.938-242.906 0-141.375-114.625-256-256-256z" fill="#000000"></path>
</svg>
